# Blender 3.5.1
# www.blender.org
mtllib death-zone.mtl
o Circle
v -0.707107 0.000000 0.707107
v -0.555570 0.000000 0.831470
v -0.382683 0.000000 0.923880
v -0.195090 0.000000 0.980785
v 0.000000 0.000000 1.000000
v 0.000000 0.000000 0.000000
v 0.000000 0.000000 0.000000
v 0.000000 0.000000 0.000000
v 0.000000 0.000000 0.000000
v 0.000000 0.000000 0.000000
v 0.000000 0.000000 -0.000000
v 0.000000 0.000000 -0.000000
v 0.000000 0.000000 -0.000000
v 0.000000 0.000000 0.000000
v 0.000000 0.000000 0.000000
v 0.000000 0.000000 0.000000
v 0.000000 0.000000 0.000000
v 0.000000 0.000000 0.000000
v -0.000000 0.000000 0.000000
v -0.000000 0.000000 0.000000
v -0.000000 0.370000 0.000000
v -0.000000 0.370000 0.000000
v 0.000000 0.370000 0.000000
v 0.000000 0.370000 0.000000
v 0.000000 0.370000 0.000000
v -0.707107 0.370000 0.707107
v -0.707107 0.300000 0.707107
v -0.555570 0.300000 0.831470
v -0.382683 0.300000 0.923880
v -0.195090 0.300000 0.980785
v 0.000000 0.300000 1.000000
v -0.000000 0.070000 0.000000
v -0.000000 0.070000 0.000000
v 0.000000 0.070000 0.000000
v 0.000000 0.070000 0.000000
v 0.000000 0.070000 0.000000
v -0.555570 0.370000 0.831470
v -0.382683 0.370000 0.923880
v -0.195090 0.370000 0.980785
v 0.000000 0.370000 1.000000
v 0.000000 0.300000 0.000000
v 0.000000 0.300000 0.000000
v 0.000000 0.300000 0.000000
v 0.000000 0.300000 0.000000
v 0.000000 0.300000 0.000000
v 0.000000 0.300000 -0.000000
v 0.000000 0.300000 -0.000000
v 0.000000 0.300000 -0.000000
v 0.000000 0.300000 0.000000
v 0.000000 0.300000 0.000000
v 0.000000 0.300000 0.000000
v -0.000000 0.300000 0.000000
v -0.000000 0.300000 0.000000
vn -0.0000 -1.0000 -0.0000
vn -0.0980 -0.0000 0.9952
vn -0.0000 -0.0000 -1.0000
vn -0.7071 -0.0000 -0.7071
vn -0.0000 -0.0000 1.0000
vn -0.6344 -0.0000 0.7730
vn 1.0000 -0.0000 -0.0000
vn -0.0000 1.0000 -0.0000
vn -1.0000 -0.0000 -0.0000
vn -0.4714 -0.0000 0.8819
vn -0.2903 -0.0000 0.9569
vt 0.000000 0.000000
vt 0.000000 0.000000
vt 0.000000 0.000000
vt 0.000000 0.000000
vt 0.000000 0.000000
vt 0.000000 0.000000
vt 0.000000 0.000000
vt 0.000000 0.000000
vt 0.000000 0.000000
vt 0.000000 0.000000
vt 0.000000 0.000000
vt 0.000000 0.000000
vt 0.000000 0.000000
vt 0.000000 0.000000
vt 0.000000 0.000000
vt 0.000000 0.000000
vt 0.000000 0.000000
vt 0.000000 0.000000
vt 0.000000 0.000000
vt 0.000000 0.000000
vt 0.000000 0.000000
vt 0.000000 0.000000
vt 0.000000 0.000000
vt 0.000000 0.000000
vt 0.000000 0.000000
vt 0.000000 0.000000
vt 0.000000 0.000000
vt 0.000000 0.000000
vt 0.000000 0.000000
vt 0.000000 0.000000
vt 0.000000 0.000000
vt 0.000000 0.000000
vt 0.000000 0.000000
vt 0.000000 0.000000
vt 0.000000 0.000000
vt 0.000000 0.000000
vt 0.000000 0.000000
vt 0.000000 0.000000
vt 0.000000 0.000000
vt 0.000000 0.000000
vt 0.000000 0.000000
vt 0.000000 0.000000
vt 0.000000 0.000000
vt 0.000000 0.000000
vt 0.000000 0.000000
vt 0.000000 0.000000
vt 0.000000 0.000000
vt 0.000000 0.000000
vt 0.000000 0.000000
vt 0.000000 0.000000
vt 0.000000 0.000000
vt 0.000000 0.000000
vt 0.000000 0.000000
s 0
f 3/3/1 18/18/1 19/19/1 4/4/1
f 4/4/1 19/19/1 20/20/1 5/5/1
f 30/30/2 31/31/2 40/40/2 39/39/2
f 20/20/3 19/19/3 33/33/3 32/32/3
f 1/1/1 16/16/1 17/17/1 2/2/1
f 2/2/1 17/17/1 18/18/1 3/3/1
f 51/51/4 27/27/4 26/26/4 24/24/4
f 19/19/5 18/18/5 34/34/5 33/33/5
f 27/27/6 28/28/6 37/37/6 26/26/6
f 31/31/7 53/53/7 21/21/7 40/40/7
f 17/17/8 16/16/8 35/35/8 36/36/8
f 16/16/8 51/51/8 24/24/8 35/35/8
f 32/32/3 33/33/3 22/22/3 21/21/3
f 33/33/5 34/34/5 23/23/5 22/22/5
f 7/7/8 6/6/8 41/41/8 42/42/8
f 34/34/8 36/36/8 25/25/8 23/23/8
f 8/8/8 7/7/8 42/42/8 43/43/8
f 36/36/8 35/35/8 24/24/8 25/25/8
f 9/9/8 8/8/8 43/43/8 44/44/8
f 37/37/8 38/38/8 23/23/8 25/25/8
f 10/10/8 9/9/8 44/44/8 45/45/8
f 26/26/8 37/37/8 25/25/8 24/24/8
f 11/11/9 10/10/9 45/45/9 46/46/9
f 1/1/6 2/2/6 28/28/6 27/27/6
f 12/12/8 11/11/8 46/46/8 47/47/8
f 2/2/10 3/3/10 29/29/10 28/28/10
f 13/13/8 12/12/8 47/47/8 48/48/8
f 3/3/11 4/4/11 30/30/11 29/29/11
f 14/14/7 13/13/7 48/48/7 49/49/7
f 4/4/2 5/5/2 31/31/2 30/30/2
f 15/15/8 14/14/8 49/49/8 50/50/8
f 16/16/8 15/15/8 50/50/8 51/51/8
f 53/53/3 20/20/3 32/32/3 21/21/3
f 5/5/7 20/20/7 53/53/7 31/31/7
f 28/28/10 29/29/10 38/38/10 37/37/10
f 18/18/8 17/17/8 36/36/8 34/34/8
f 29/29/11 30/30/11 39/39/11 38/38/11
f 38/38/8 39/39/8 22/22/8 23/23/8
f 39/39/8 40/40/8 21/21/8 22/22/8
f 18/18/4 17/17/4 16/16/4 1/1/4 27/27/4 51/51/4 52/52/4 19/19/4
