# Blender 3.5.1
# www.blender.org
mtllib platform.mtl
o Circle
v 0.000000 0.000000 -1.000000
v -0.195090 0.000000 -0.980785
v -0.382683 0.000000 -0.923880
v -0.555570 0.000000 -0.831470
v -0.707107 0.000000 -0.707107
v -0.831470 0.000000 -0.555570
v -0.923880 0.000000 -0.382683
v -0.980785 0.000000 -0.195090
v -1.000000 0.000000 0.000000
v -0.980785 0.000000 0.195090
v -0.923880 0.000000 0.382683
v -0.831470 0.000000 0.555570
v -0.707107 0.000000 0.707107
v -0.555570 0.000000 0.831470
v -0.382683 0.000000 0.923880
v -0.195090 0.000000 0.980785
v 0.000000 0.000000 1.000000
v 0.195090 0.000000 0.980785
v -0.831470 0.200000 0.555570
v -0.923880 0.200000 0.382683
v -0.980785 0.200000 0.195090
v -1.000000 0.200000 0.000000
v -0.980785 0.200000 -0.195090
v -0.923880 0.200000 -0.382683
v 1.000000 0.000000 0.000000
v 0.980785 0.000000 -0.195090
v 0.923880 0.000000 -0.382683
v 0.831470 0.000000 -0.555570
v 0.707107 0.000000 -0.707107
v 0.555570 0.000000 -0.831470
v 0.382683 0.000000 -0.923880
v 0.195090 0.000000 -0.980785
v -0.000000 0.000000 0.000000
v -0.000000 0.000000 0.000000
v 0.000000 0.000000 0.000000
v 0.000000 0.000000 0.000000
v 0.000000 0.000000 0.000000
v 0.000000 0.000000 0.000000
v 0.000000 0.000000 0.000000
v 0.000000 0.000000 -0.000000
v 0.000000 0.000000 -0.000000
v 0.000000 0.000000 -0.000000
v 0.000000 0.000000 0.000000
v 0.000000 0.000000 0.000000
v 0.000000 0.000000 0.000000
v 0.000000 0.000000 0.000000
v 0.000000 0.000000 0.000000
v -0.000000 0.000000 0.000000
v -0.000000 0.000000 0.000000
v -0.000000 0.000000 0.000000
v -0.831470 0.200000 -0.555570
v -0.707107 0.200000 -0.707107
v -0.555570 0.200000 -0.831470
v -0.382683 0.200000 -0.923880
v 0.000000 0.200000 -1.000000
v -0.195090 0.200000 -0.980785
v 0.000000 0.000000 -0.000000
v 0.000000 0.000000 -0.000000
v 0.000000 0.000000 0.000000
v 0.000000 0.000000 0.000000
v 0.000000 0.000000 0.000000
v 0.000000 0.000000 0.000000
v 0.000000 0.000000 0.000000
v -0.000000 0.000000 0.000000
v -0.707107 0.200000 0.707107
v -0.555570 0.200000 0.831470
v -0.382683 0.200000 0.923880
v -0.195090 0.200000 0.980785
v 0.000000 0.200000 1.000000
v 0.195090 0.200000 0.980785
v 0.980785 0.200000 -0.195090
v 1.000000 0.200000 0.000000
v 0.923880 0.200000 -0.382683
v 0.831470 0.200000 -0.555570
v 0.707107 0.200000 -0.707107
v 0.555570 0.200000 -0.831470
v 0.382683 0.200000 -0.923880
v 0.195090 0.200000 -0.980785
v -0.000000 0.200000 0.000000
v -0.000000 0.200000 0.000000
v 0.000000 0.200000 0.000000
v 0.000000 0.200000 0.000000
v 0.000000 0.200000 0.000000
v 0.000000 0.200000 0.000000
v 0.000000 0.200000 0.000000
v 0.000000 0.200000 -0.000000
v 0.000000 0.200000 -0.000000
v 0.000000 0.200000 -0.000000
v 0.000000 0.200000 0.000000
v 0.000000 0.200000 0.000000
v 0.000000 0.200000 0.000000
v 0.000000 0.200000 0.000000
v 0.000000 0.200000 0.000000
v -0.000000 0.200000 0.000000
v -0.000000 0.200000 0.000000
v -0.000000 0.200000 0.000000
v 0.000000 0.200000 -0.000000
v 0.000000 0.200000 -0.000000
v 0.000000 0.200000 0.000000
v 0.000000 0.200000 0.000000
v 0.000000 0.200000 0.000000
v 0.000000 0.200000 0.000000
v 0.000000 0.200000 0.000000
v -0.000000 0.200000 0.000000
vn -0.0000 1.0000 -0.0000
vn -0.0000 -1.0000 -0.0000
vn 0.0995 -0.9950 -0.0000
vn 1.0000 -0.0000 -0.0000
vn 0.9569 -0.0000 -0.2903
vn 0.8819 -0.0000 -0.4714
vn -0.0980 -0.0000 -0.9952
vn 0.7730 -0.0000 -0.6344
vn -0.2903 -0.0000 -0.9569
vn 0.6344 -0.0000 -0.7730
vn -0.4714 -0.0000 -0.8819
vn 0.4714 -0.0000 -0.8819
vn -0.6344 -0.0000 -0.7730
vn 0.2903 -0.0000 -0.9569
vn -0.7730 -0.0000 -0.6344
vn 0.9808 -0.0000 -0.1951
vn 0.0980 -0.0000 -0.9952
vn -0.8819 -0.0000 -0.4714
vn -0.0000 -0.0000 1.0000
vn -0.9569 -0.0000 -0.2903
vn -0.0000 -0.0000 -1.0000
vn -0.9952 -0.0000 -0.0980
vn -0.9952 -0.0000 0.0980
vn -0.9569 -0.0000 0.2903
vn -0.8819 -0.0000 0.4714
vn -0.7730 -0.0000 0.6344
vn -1.0000 -0.0000 -0.0000
vn -0.6344 -0.0000 0.7730
vn -0.4714 -0.0000 0.8819
vn -0.2903 -0.0000 0.9569
vn -0.0980 -0.0000 0.9952
vn 0.0980 -0.0000 0.9952
vn 0.9952 -0.0000 -0.0980
vt 0.000000 0.000000
vt 0.000000 0.000000
vt 0.000000 0.000000
vt 0.000000 0.000000
vt 0.000000 0.000000
vt 0.000000 0.000000
vt 0.000000 0.000000
vt 0.000000 0.000000
vt 0.000000 0.000000
vt 0.000000 0.000000
vt 0.000000 0.000000
vt 0.000000 0.000000
vt 0.000000 0.000000
vt 0.000000 0.000000
vt 0.000000 0.000000
vt 0.000000 0.000000
vt 0.000000 0.000000
vt 0.000000 0.000000
vt 0.000000 0.000000
vt 0.000000 0.000000
vt 0.000000 0.000000
vt 0.000000 0.000000
vt 0.000000 0.000000
vt 0.000000 0.000000
vt 0.000000 0.000000
vt 0.000000 0.000000
vt 0.000000 0.000000
vt 0.000000 0.000000
vt 0.000000 0.000000
vt 0.000000 0.000000
vt 0.000000 0.000000
vt 0.000000 0.000000
vt 0.000000 0.000000
vt 0.000000 0.000000
vt 0.000000 0.000000
vt 0.000000 0.000000
vt 0.000000 0.000000
vt 0.000000 0.000000
vt 0.000000 0.000000
vt 0.000000 0.000000
vt 0.000000 0.000000
vt 0.000000 0.000000
vt 0.000000 0.000000
vt 0.000000 0.000000
vt 0.000000 0.000000
vt 0.000000 0.000000
vt 0.000000 0.000000
vt 0.000000 0.000000
vt 0.000000 0.000000
vt 0.000000 0.000000
vt 0.000000 0.000000
vt 0.000000 0.000000
vt 0.000000 0.000000
vt 0.000000 0.000000
vt 0.000000 0.000000
vt 0.000000 0.000000
vt 0.000000 0.000000
vt 0.000000 0.000000
vt 0.000000 0.000000
vt 0.000000 0.000000
vt 0.000000 0.000000
vt 0.000000 0.000000
vt 0.000000 0.000000
vt 0.000000 0.000000
vt 0.000000 0.000000
vt 0.000000 0.000000
vt 0.000000 0.000000
vt 0.000000 0.000000
vt 0.000000 0.000000
vt 0.000000 0.000000
vt 0.000000 0.000000
vt 0.000000 0.000000
vt 0.000000 0.000000
vt 0.000000 0.000000
vt 0.000000 0.000000
vt 0.000000 0.000000
vt 0.000000 0.000000
vt 0.000000 0.000000
vt 0.000000 0.000000
vt 0.000000 0.000000
vt 0.000000 0.000000
vt 0.000000 0.000000
vt 0.000000 0.000000
vt 0.000000 0.000000
vt 0.000000 0.000000
vt 0.000000 0.000000
vt 0.000000 0.000000
vt 0.000000 0.000000
vt 0.000000 0.000000
vt 0.000000 0.000000
vt 0.000000 0.000000
vt 0.000000 0.000000
vt 0.000000 0.000000
vt 0.000000 0.000000
vt 0.000000 0.000000
vt 0.000000 0.000000
vt 0.000000 0.000000
vt 0.000000 0.000000
vt 0.000000 0.000000
vt 0.000000 0.000000
vt 0.000000 0.000000
vt 0.000000 0.000000
vt 0.000000 0.000000
vt 0.000000 0.000000
s 0
f 66/66/1 93/93/1 92/92/1
f 11/11/2 44/44/2 12/12/2
f 25/25/2 58/58/2 26/26/2
f 12/12/2 45/45/2 13/13/2
f 26/26/2 59/59/2 27/27/2
f 13/13/2 46/46/2 14/14/2
f 27/27/2 60/60/2 28/28/2
f 14/14/2 47/47/2 15/15/2
f 33/33/2 2/2/2 1/1/2
f 28/28/2 61/61/2 29/29/2
f 15/15/2 48/48/2 16/16/2
f 2/2/2 35/35/2 3/3/2
f 29/29/2 62/62/2 30/30/2
f 48/48/2 17/17/2 16/16/2
f 3/3/2 36/36/2 4/4/2
f 30/30/2 63/63/2 31/31/2
f 17/17/2 50/50/2 18/18/2
f 4/4/2 37/37/2 5/5/2
f 63/63/2 32/32/2 31/31/2
f 73/73/1 100/100/1 99/99/1
f 5/5/2 38/38/2 6/6/2
f 32/32/2 33/33/2 1/1/2
f 65/65/1 92/92/1 91/91/1
f 6/6/2 39/39/2 7/7/2
f 71/71/3 99/99/3 97/97/3
f 7/7/2 40/40/2 8/8/2
f 19/19/1 91/91/1 90/90/1
f 8/8/2 41/41/2 9/9/2
f 72/72/1 97/97/1 98/98/1
f 9/9/2 42/42/2 10/10/2
f 20/20/1 90/90/1 89/89/1
f 42/42/2 11/11/2 10/10/2
f 56/56/1 80/80/1 55/55/1
f 74/74/1 101/101/1 100/100/1
f 67/67/1 94/94/1 93/93/1
f 56/56/2 81/81/2 79/79/2
f 75/75/1 102/102/1 101/101/1
f 69/69/1 94/94/1 68/68/1
f 54/54/1 82/82/1 81/81/1
f 76/76/1 103/103/1 102/102/1
f 69/69/2 96/96/2 95/95/2
f 53/53/1 83/83/1 82/82/1
f 78/78/1 103/103/1 77/77/1
f 52/52/1 84/84/1 83/83/1
f 78/78/1 80/80/1 104/104/1
f 51/51/1 85/85/1 84/84/1
f 24/24/4 86/86/4 85/85/4
f 23/23/1 87/87/1 86/86/1
f 22/22/1 88/88/1 87/87/1
f 20/20/1 88/88/1 21/21/1
f 27/27/5 71/71/5 26/26/5
f 28/28/6 73/73/6 27/27/6
f 2/2/7 55/55/7 1/1/7
f 29/29/8 74/74/8 28/28/8
f 3/3/9 56/56/9 2/2/9
f 30/30/10 75/75/10 29/29/10
f 4/4/11 54/54/11 3/3/11
f 31/31/12 76/76/12 30/30/12
f 5/5/13 53/53/13 4/4/13
f 58/58/1 98/98/1 97/97/1
f 32/32/14 77/77/14 31/31/14
f 6/6/15 52/52/15 5/5/15
f 50/50/16 70/70/16 18/18/16
f 58/58/4 99/99/4 59/59/4
f 1/1/17 78/78/17 32/32/17
f 7/7/18 51/51/18 6/6/18
f 60/60/1 99/99/1 100/100/1
f 33/33/19 79/79/19 34/34/19
f 8/8/20 24/24/20 7/7/20
f 61/61/1 100/100/1 101/101/1
f 34/34/21 81/81/21 35/35/21
f 9/9/22 23/23/22 8/8/22
f 62/62/1 101/101/1 102/102/1
f 36/36/1 81/81/1 82/82/1
f 10/10/23 22/22/23 9/9/23
f 63/63/1 102/102/1 103/103/1
f 37/37/1 82/82/1 83/83/1
f 11/11/24 21/21/24 10/10/24
f 63/63/19 104/104/19 64/64/19
f 38/38/1 83/83/1 84/84/1
f 12/12/25 20/20/25 11/11/25
f 64/64/21 80/80/21 33/33/21
f 39/39/1 84/84/1 85/85/1
f 13/13/26 19/19/26 12/12/26
f 39/39/27 86/86/27 40/40/27
f 14/14/28 65/65/28 13/13/28
f 25/25/19 98/98/19 57/57/19
f 41/41/1 86/86/1 87/87/1
f 15/15/29 66/66/29 14/14/29
f 42/42/1 87/87/1 88/88/1
f 16/16/30 67/67/30 15/15/30
f 42/42/4 89/89/4 43/43/4
f 17/17/31 68/68/31 16/16/31
f 44/44/1 89/89/1 90/90/1
f 18/18/32 69/69/32 17/17/32
f 45/45/1 90/90/1 91/91/1
f 46/46/1 91/91/1 92/92/1
f 47/47/1 92/92/1 93/93/1
f 47/47/19 94/94/19 48/48/19
f 48/48/21 95/95/21 49/49/21
f 49/49/19 96/96/19 50/50/19
f 26/26/33 72/72/33 25/25/33
f 66/66/1 67/67/1 93/93/1
f 11/11/1 43/43/1 44/44/1
f 25/25/1 57/57/1 58/58/1
f 12/12/1 44/44/1 45/45/1
f 26/26/1 58/58/1 59/59/1
f 13/13/1 45/45/1 46/46/1
f 27/27/1 59/59/1 60/60/1
f 14/14/1 46/46/1 47/47/1
f 33/33/1 34/34/1 2/2/1
f 28/28/1 60/60/1 61/61/1
f 15/15/1 47/47/1 48/48/1
f 2/2/1 34/34/1 35/35/1
f 29/29/1 61/61/1 62/62/1
f 48/48/2 49/49/2 17/17/2
f 3/3/1 35/35/1 36/36/1
f 30/30/1 62/62/1 63/63/1
f 17/17/1 49/49/1 50/50/1
f 4/4/1 36/36/1 37/37/1
f 63/63/2 64/64/2 32/32/2
f 73/73/1 74/74/1 100/100/1
f 5/5/1 37/37/1 38/38/1
f 32/32/1 64/64/1 33/33/1
f 65/65/1 66/66/1 92/92/1
f 6/6/1 38/38/1 39/39/1
f 71/71/1 73/73/1 99/99/1
f 7/7/1 39/39/1 40/40/1
f 19/19/1 65/65/1 91/91/1
f 8/8/1 40/40/1 41/41/1
f 72/72/1 71/71/1 97/97/1
f 9/9/1 41/41/1 42/42/1
f 20/20/1 19/19/1 90/90/1
f 42/42/1 43/43/1 11/11/1
f 56/56/1 79/79/1 80/80/1
f 74/74/1 75/75/1 101/101/1
f 67/67/1 68/68/1 94/94/1
f 56/56/1 54/54/1 81/81/1
f 75/75/1 76/76/1 102/102/1
f 69/69/1 95/95/1 94/94/1
f 54/54/1 53/53/1 82/82/1
f 76/76/1 77/77/1 103/103/1
f 69/69/1 70/70/1 96/96/1
f 53/53/1 52/52/1 83/83/1
f 78/78/1 104/104/1 103/103/1
f 52/52/1 51/51/1 84/84/1
f 78/78/1 55/55/1 80/80/1
f 51/51/1 24/24/1 85/85/1
f 24/24/1 23/23/1 86/86/1
f 23/23/1 22/22/1 87/87/1
f 22/22/1 21/21/1 88/88/1
f 20/20/27 89/89/27 88/88/27
f 27/27/5 73/73/5 71/71/5
f 28/28/6 74/74/6 73/73/6
f 2/2/7 56/56/7 55/55/7
f 29/29/8 75/75/8 74/74/8
f 3/3/9 54/54/9 56/56/9
f 30/30/10 76/76/10 75/75/10
f 4/4/11 53/53/11 54/54/11
f 31/31/12 77/77/12 76/76/12
f 5/5/13 52/52/13 53/53/13
f 58/58/1 57/57/1 98/98/1
f 32/32/14 78/78/14 77/77/14
f 6/6/15 51/51/15 52/52/15
f 50/50/16 96/96/16 70/70/16
f 58/58/4 97/97/4 99/99/4
f 1/1/17 55/55/17 78/78/17
f 7/7/18 24/24/18 51/51/18
f 60/60/1 59/59/1 99/99/1
f 33/33/19 80/80/19 79/79/19
f 8/8/20 23/23/20 24/24/20
f 61/61/1 60/60/1 100/100/1
f 34/34/21 79/79/21 81/81/21
f 9/9/22 22/22/22 23/23/22
f 62/62/1 61/61/1 101/101/1
f 36/36/1 35/35/1 81/81/1
f 10/10/23 21/21/23 22/22/23
f 63/63/1 62/62/1 102/102/1
f 37/37/1 36/36/1 82/82/1
f 11/11/24 20/20/24 21/21/24
f 63/63/19 103/103/19 104/104/19
f 38/38/1 37/37/1 83/83/1
f 12/12/25 19/19/25 20/20/25
f 64/64/21 104/104/21 80/80/21
f 39/39/1 38/38/1 84/84/1
f 13/13/26 65/65/26 19/19/26
f 39/39/27 85/85/27 86/86/27
f 14/14/28 66/66/28 65/65/28
f 25/25/19 72/72/19 98/98/19
f 41/41/1 40/40/1 86/86/1
f 15/15/29 67/67/29 66/66/29
f 42/42/1 41/41/1 87/87/1
f 16/16/30 68/68/30 67/67/30
f 42/42/4 88/88/4 89/89/4
f 17/17/31 69/69/31 68/68/31
f 44/44/1 43/43/1 89/89/1
f 18/18/32 70/70/32 69/69/32
f 45/45/1 44/44/1 90/90/1
f 46/46/1 45/45/1 91/91/1
f 47/47/1 46/46/1 92/92/1
f 47/47/19 93/93/19 94/94/19
f 48/48/21 94/94/21 95/95/21
f 49/49/19 95/95/19 96/96/19
f 26/26/33 71/71/33 72/72/33
