# Blender 3.5.1
# www.blender.org
mtllib platform.mtl
o Circle
v 0.000000 0.000000 -1.000000
v -0.195090 0.000000 -0.980785
v -0.382683 0.000000 -0.923880
v -0.555570 0.000000 -0.831470
v -0.707107 0.000000 -0.707107
v -0.831470 0.000000 -0.555570
v -0.923880 0.000000 -0.382683
v -0.980785 0.000000 -0.195090
v -1.000000 0.000000 0.000000
v -0.980785 0.000000 0.195090
v -0.923880 0.000000 0.382683
v -0.831470 0.000000 0.555570
v -0.707107 0.000000 0.707107
v -0.555570 0.000000 0.831470
v -0.382683 0.000000 0.923880
v -0.195090 0.000000 0.980785
v 0.000000 0.000000 1.000000
v 0.707107 0.000000 0.707107
v 0.831470 0.000000 0.555570
v 0.923880 0.000000 0.382683
v 0.980785 0.000000 0.195090
v 1.000000 0.000000 0.000000
v 0.980785 0.000000 -0.195090
v 0.923880 0.000000 -0.382683
v 0.831470 0.000000 -0.555570
v 0.707107 0.000000 -0.707107
v 0.555570 0.000000 -0.831470
v 0.382683 0.000000 -0.923880
v 0.195090 0.000000 -0.980785
v 0.000000 0.000000 0.002574
v -0.195090 0.067927 -0.980785
v 0.000000 0.067927 -1.000000
v -0.382683 0.067927 -0.923880
v -0.555570 0.067927 -0.831470
v -0.707107 0.067927 -0.707107
v -0.831470 0.067927 -0.555570
v -0.923880 0.067927 -0.382683
v -0.980785 0.067927 -0.195090
v -1.000000 0.067927 0.000000
v -0.980785 0.067927 0.195090
v -0.923880 0.067927 0.382683
v -0.831470 0.067927 0.555570
v -0.707107 0.067927 0.707107
v -0.555570 0.067927 0.831470
v -0.382683 0.067927 0.923880
v -0.195090 0.067927 0.980785
v 0.000000 0.067927 1.000000
v 0.831470 0.067927 0.555570
v 0.707107 0.067927 0.707107
v 0.923880 0.067927 0.382683
v 0.980785 0.067927 0.195090
v 1.000000 0.067927 0.000000
v 0.980785 0.067927 -0.195090
v 0.923880 0.067927 -0.382683
v 0.831470 0.067927 -0.555570
v 0.707107 0.067927 -0.707107
v 0.555570 0.067927 -0.831470
v 0.382683 0.067927 -0.923880
v 0.195090 0.067927 -0.980785
v 0.000000 0.067927 0.002574
vn -0.0000 -1.0000 -0.0000
vn -0.0000 1.0000 -0.0000
vn 0.8819 -0.0000 0.4714
vn -0.7730 -0.0000 -0.6344
vn 0.9569 -0.0000 0.2903
vn -0.8819 -0.0000 -0.4714
vn 0.9952 -0.0000 0.0980
vn -0.9569 -0.0000 -0.2903
vn 0.9952 -0.0000 -0.0980
vn -0.9952 -0.0000 -0.0980
vn 0.9569 -0.0000 -0.2903
vn -0.9952 -0.0000 0.0980
vn 0.8819 -0.0000 -0.4714
vn -0.9569 -0.0000 0.2903
vn 0.7730 -0.0000 -0.6344
vn -0.8819 -0.0000 0.4714
vn 0.6344 -0.0000 -0.7730
vn -0.7730 -0.0000 0.6344
vn 0.4714 -0.0000 -0.8819
vn -0.6344 -0.0000 0.7730
vn 0.2903 -0.0000 -0.9569
vn -0.4714 -0.0000 0.8819
vn -0.0980 -0.0000 -0.9952
vn 0.0980 -0.0000 -0.9952
vn -0.2903 -0.0000 0.9569
vn -0.2903 -0.0000 -0.9569
vn -0.0980 -0.0000 0.9952
vn -0.4714 -0.0000 -0.8819
vn 1.0000 -0.0000 -0.0000
vn 0.7730 -0.0000 0.6344
vn -0.6344 -0.0000 -0.7730
vn -0.7058 -0.0000 0.7084
vt 0.000000 0.000000
vt 0.000000 0.000000
vt 0.000000 0.000000
vt 0.000000 0.000000
vt 0.000000 0.000000
vt 0.000000 0.000000
vt 0.000000 0.000000
vt 0.000000 0.000000
vt 0.000000 0.000000
vt 0.000000 0.000000
vt 0.000000 0.000000
vt 0.000000 0.000000
vt 0.000000 0.000000
vt 0.000000 0.000000
vt 0.000000 0.000000
vt 0.000000 0.000000
vt 0.000000 0.000000
vt 0.000000 0.000000
vt 0.000000 0.000000
vt 0.000000 0.000000
vt 0.000000 0.000000
vt 0.000000 0.000000
vt 0.000000 0.000000
vt 0.000000 0.000000
vt 0.000000 0.000000
vt 0.000000 0.000000
vt 0.000000 0.000000
vt 0.000000 0.000000
vt 0.000000 0.000000
vt 0.000000 0.000000
vt 0.000000 0.000000
vt 0.000000 0.000000
vt 0.000000 0.000000
vt 0.000000 0.000000
vt 0.000000 0.000000
vt 0.000000 0.000000
vt 0.000000 0.000000
vt 0.000000 0.000000
vt 0.000000 0.000000
vt 0.000000 0.000000
vt 0.000000 0.000000
vt 0.000000 0.000000
vt 0.000000 0.000000
vt 0.000000 0.000000
vt 0.000000 0.000000
vt 0.000000 0.000000
vt 0.000000 0.000000
vt 0.000000 0.000000
vt 0.000000 0.000000
vt 0.000000 0.000000
vt 0.000000 0.000000
vt 0.000000 0.000000
vt 0.000000 0.000000
vt 0.000000 0.000000
vt 0.000000 0.000000
vt 0.000000 0.000000
vt 0.000000 0.000000
vt 0.000000 0.000000
vt 0.000000 0.000000
vt 0.000000 0.000000
s 0
f 30/30/1 16/16/1 15/15/1
f 19/19/1 18/18/1 30/30/1
f 46/46/2 47/47/2 60/60/2
f 58/58/2 59/59/2 60/60/2
f 20/20/3 48/48/3 19/19/3
f 6/6/4 35/35/4 5/5/4
f 21/21/5 50/50/5 20/20/5
f 7/7/6 36/36/6 6/6/6
f 22/22/7 51/51/7 21/21/7
f 8/8/8 37/37/8 7/7/8
f 23/23/9 52/52/9 22/22/9
f 9/9/10 38/38/10 8/8/10
f 24/24/11 53/53/11 23/23/11
f 10/10/12 39/39/12 9/9/12
f 25/25/13 54/54/13 24/24/13
f 11/11/14 40/40/14 10/10/14
f 26/26/15 55/55/15 25/25/15
f 12/12/16 41/41/16 11/11/16
f 27/27/17 56/56/17 26/26/17
f 13/13/18 42/42/18 12/12/18
f 28/28/19 57/57/19 27/27/19
f 14/14/20 43/43/20 13/13/20
f 29/29/21 58/58/21 28/28/21
f 15/15/22 44/44/22 14/14/22
f 2/2/23 32/32/23 1/1/23
f 1/1/24 59/59/24 29/29/24
f 16/16/25 45/45/25 15/15/25
f 3/3/26 31/31/26 2/2/26
f 17/17/27 46/46/27 16/16/27
f 4/4/28 33/33/28 3/3/28
f 30/30/29 47/47/29 17/17/29
f 19/19/30 49/49/30 18/18/30
f 5/5/31 34/34/31 4/4/31
f 18/18/32 60/60/32 30/30/32
f 3/3/1 2/2/1 30/30/1
f 2/2/1 1/1/1 30/30/1
f 30/30/1 17/17/1 16/16/1
f 5/5/1 4/4/1 30/30/1
f 4/4/1 3/3/1 30/30/1
f 7/7/1 6/6/1 30/30/1
f 6/6/1 5/5/1 30/30/1
f 9/9/1 8/8/1 30/30/1
f 8/8/1 7/7/1 30/30/1
f 11/11/1 10/10/1 30/30/1
f 10/10/1 9/9/1 30/30/1
f 13/13/1 12/12/1 30/30/1
f 12/12/1 11/11/1 30/30/1
f 15/15/1 14/14/1 30/30/1
f 14/14/1 13/13/1 30/30/1
f 30/30/1 1/1/1 29/29/1
f 29/29/1 28/28/1 30/30/1
f 28/28/1 27/27/1 30/30/1
f 27/27/1 26/26/1 30/30/1
f 26/26/1 25/25/1 30/30/1
f 25/25/1 24/24/1 30/30/1
f 24/24/1 23/23/1 30/30/1
f 23/23/1 22/22/1 30/30/1
f 22/22/1 21/21/1 30/30/1
f 21/21/1 20/20/1 30/30/1
f 20/20/1 19/19/1 30/30/1
f 32/32/2 31/31/2 60/60/2
f 31/31/2 33/33/2 60/60/2
f 33/33/2 34/34/2 60/60/2
f 34/34/2 35/35/2 60/60/2
f 35/35/2 36/36/2 60/60/2
f 36/36/2 37/37/2 60/60/2
f 37/37/2 38/38/2 60/60/2
f 38/38/2 39/39/2 60/60/2
f 39/39/2 40/40/2 60/60/2
f 40/40/2 41/41/2 60/60/2
f 41/41/2 42/42/2 60/60/2
f 42/42/2 43/43/2 60/60/2
f 43/43/2 44/44/2 60/60/2
f 44/44/2 45/45/2 60/60/2
f 45/45/2 46/46/2 60/60/2
f 59/59/2 32/32/2 60/60/2
f 60/60/2 49/49/2 48/48/2
f 48/48/2 50/50/2 60/60/2
f 50/50/2 51/51/2 60/60/2
f 51/51/2 52/52/2 60/60/2
f 52/52/2 53/53/2 60/60/2
f 53/53/2 54/54/2 60/60/2
f 54/54/2 55/55/2 60/60/2
f 55/55/2 56/56/2 60/60/2
f 56/56/2 57/57/2 60/60/2
f 57/57/2 58/58/2 60/60/2
f 20/20/3 50/50/3 48/48/3
f 6/6/4 36/36/4 35/35/4
f 21/21/5 51/51/5 50/50/5
f 7/7/6 37/37/6 36/36/6
f 22/22/7 52/52/7 51/51/7
f 8/8/8 38/38/8 37/37/8
f 23/23/9 53/53/9 52/52/9
f 9/9/10 39/39/10 38/38/10
f 24/24/11 54/54/11 53/53/11
f 10/10/12 40/40/12 39/39/12
f 25/25/13 55/55/13 54/54/13
f 11/11/14 41/41/14 40/40/14
f 26/26/15 56/56/15 55/55/15
f 12/12/16 42/42/16 41/41/16
f 27/27/17 57/57/17 56/56/17
f 13/13/18 43/43/18 42/42/18
f 28/28/19 58/58/19 57/57/19
f 14/14/20 44/44/20 43/43/20
f 29/29/21 59/59/21 58/58/21
f 15/15/22 45/45/22 44/44/22
f 2/2/23 31/31/23 32/32/23
f 1/1/24 32/32/24 59/59/24
f 16/16/25 46/46/25 45/45/25
f 3/3/26 33/33/26 31/31/26
f 17/17/27 47/47/27 46/46/27
f 4/4/28 34/34/28 33/33/28
f 30/30/29 60/60/29 47/47/29
f 19/19/30 48/48/30 49/49/30
f 5/5/31 35/35/31 34/34/31
f 18/18/32 49/49/32 60/60/32
